<svg width="1282" height="385" viewBox="0 0 1282 385" fill="none" xmlns="http://www.w3.org/2000/svg">
<path d="M144.992 11.1433L58.853 236.703L150.802 204.401L138.071 374.635L221.136 137.504L122.379 172.315L144.992 11.1433Z" stroke="#EBE55D" stroke-width="20" stroke-linecap="round" stroke-linejoin="round"/>
<path d="M279.69 262V143H336.98C348.087 143 357.663 144.813 365.71 148.44C373.87 152.067 380.16 157.28 384.58 164.08C389 170.767 391.21 178.7 391.21 187.88C391.21 197.06 389 204.993 384.58 211.68C380.16 218.367 373.87 223.58 365.71 227.32C357.663 230.947 348.087 232.76 336.98 232.76H301.96L319.81 215.59V262H279.69ZM319.81 220.01L301.96 201.82H334.43C339.983 201.82 344.063 200.573 346.67 198.08C349.39 195.587 350.75 192.187 350.75 187.88C350.75 183.573 349.39 180.173 346.67 177.68C344.063 175.187 339.983 173.94 334.43 173.94H301.96L319.81 155.75V220.01ZM404.838 262V135.86H443.258V262H404.838ZM499.047 263.7C491.68 263.7 484.994 262.227 478.987 259.28C473.094 256.22 468.447 251.517 465.047 245.17C461.647 238.71 459.947 230.437 459.947 220.35V169.01H498.367V213.72C498.367 220.293 499.444 224.883 501.597 227.49C503.75 230.097 506.697 231.4 510.437 231.4C512.704 231.4 514.8 230.833 516.727 229.7C518.767 228.453 520.41 226.47 521.657 223.75C522.904 220.917 523.527 217.233 523.527 212.7V169.01H561.947V262H525.397V235.14L532.707 242.45C529.42 249.703 524.717 255.087 518.597 258.6C512.59 262 506.074 263.7 499.047 263.7ZM626.248 296.68C617.068 296.68 608.455 295.717 600.408 293.79C592.362 291.863 585.448 288.973 579.668 285.12L592.588 258.94C596.215 261.773 600.805 263.983 606.358 265.57C612.025 267.27 617.352 268.12 622.338 268.12C630.272 268.12 635.938 266.42 639.338 263.02C642.738 259.733 644.438 254.973 644.438 248.74V240.92L646.138 212.02L646.308 183.12V169.01H682.858V243.47C682.858 261.49 677.872 274.863 667.898 283.59C657.925 292.317 644.042 296.68 626.248 296.68ZM618.768 256.9C610.948 256.9 603.638 255.087 596.838 251.46C590.038 247.72 584.542 242.507 580.348 235.82C576.155 229.133 574.058 221.2 574.058 212.02C574.058 202.84 576.155 194.907 580.348 188.22C584.542 181.533 590.038 176.377 596.838 172.75C603.638 169.123 610.948 167.31 618.768 167.31C626.815 167.31 633.388 168.897 638.488 172.07C643.702 175.243 647.555 180.173 650.048 186.86C652.542 193.433 653.788 201.82 653.788 212.02C653.788 222.22 652.542 230.663 650.048 237.35C647.555 243.923 643.702 248.853 638.488 252.14C633.388 255.313 626.815 256.9 618.768 256.9ZM628.968 226.98C632.028 226.98 634.748 226.357 637.128 225.11C639.508 223.863 641.378 222.107 642.738 219.84C644.098 217.573 644.778 214.967 644.778 212.02C644.778 208.96 644.098 206.353 642.738 204.2C641.378 201.933 639.508 200.233 637.128 199.1C634.748 197.853 632.028 197.23 628.968 197.23C626.022 197.23 623.302 197.853 620.808 199.1C618.428 200.233 616.502 201.933 615.028 204.2C613.668 206.353 612.988 208.96 612.988 212.02C612.988 214.967 613.668 217.573 615.028 219.84C616.502 222.107 618.428 223.863 620.808 225.11C623.302 226.357 626.022 226.98 628.968 226.98ZM747.108 296.68C737.928 296.68 729.314 295.717 721.268 293.79C713.221 291.863 706.308 288.973 700.528 285.12L713.448 258.94C717.074 261.773 721.664 263.983 727.218 265.57C732.884 267.27 738.211 268.12 743.198 268.12C751.131 268.12 756.798 266.42 760.198 263.02C763.598 259.733 765.298 254.973 765.298 248.74V240.92L766.998 212.02L767.168 183.12V169.01H803.718V243.47C803.718 261.49 798.731 274.863 788.758 283.59C778.784 292.317 764.901 296.68 747.108 296.68ZM739.628 256.9C731.808 256.9 724.498 255.087 717.698 251.46C710.898 247.72 705.401 242.507 701.208 235.82C697.014 229.133 694.918 221.2 694.918 212.02C694.918 202.84 697.014 194.907 701.208 188.22C705.401 181.533 710.898 176.377 717.698 172.75C724.498 169.123 731.808 167.31 739.628 167.31C747.674 167.31 754.248 168.897 759.348 172.07C764.561 175.243 768.414 180.173 770.908 186.86C773.401 193.433 774.648 201.82 774.648 212.02C774.648 222.22 773.401 230.663 770.908 237.35C768.414 243.923 764.561 248.853 759.348 252.14C754.248 255.313 747.674 256.9 739.628 256.9ZM749.828 226.98C752.888 226.98 755.608 226.357 757.988 225.11C760.368 223.863 762.238 222.107 763.598 219.84C764.958 217.573 765.638 214.967 765.638 212.02C765.638 208.96 764.958 206.353 763.598 204.2C762.238 201.933 760.368 200.233 757.988 199.1C755.608 197.853 752.888 197.23 749.828 197.23C746.881 197.23 744.161 197.853 741.668 199.1C739.288 200.233 737.361 201.933 735.888 204.2C734.528 206.353 733.848 208.96 733.848 212.02C733.848 214.967 734.528 217.573 735.888 219.84C737.361 222.107 739.288 223.863 741.668 225.11C744.161 226.357 746.881 226.98 749.828 226.98ZM872.047 263.7C860.714 263.7 850.797 261.603 842.297 257.41C833.91 253.217 827.394 247.493 822.747 240.24C818.1 232.873 815.777 224.6 815.777 215.42C815.777 206.013 818.044 197.683 822.577 190.43C827.224 183.177 833.514 177.51 841.447 173.43C849.494 169.35 858.504 167.31 868.477 167.31C877.657 167.31 886.1 169.123 893.807 172.75C901.627 176.377 907.86 181.76 912.507 188.9C917.267 196.04 919.647 204.88 919.647 215.42C919.647 216.78 919.59 218.31 919.477 220.01C919.364 221.597 919.25 223.07 919.137 224.43H847.567V205.9H898.737L884.287 210.83C884.287 207.203 883.607 204.143 882.247 201.65C881 199.043 879.244 197.06 876.977 195.7C874.71 194.227 871.99 193.49 868.817 193.49C865.644 193.49 862.867 194.227 860.487 195.7C858.22 197.06 856.464 199.043 855.217 201.65C853.97 204.143 853.347 207.203 853.347 210.83V216.61C853.347 220.577 854.14 223.977 855.727 226.81C857.314 229.643 859.58 231.797 862.527 233.27C865.474 234.63 869.044 235.31 873.237 235.31C877.544 235.31 881.057 234.743 883.777 233.61C886.61 232.477 889.557 230.777 892.617 228.51L912.677 248.74C908.144 253.613 902.534 257.353 895.847 259.96C889.274 262.453 881.34 263.7 872.047 263.7ZM972.571 263.7C964.525 263.7 957.045 261.773 950.131 257.92C943.331 253.953 937.891 248.4 933.811 241.26C929.731 234.007 927.691 225.393 927.691 215.42C927.691 205.447 929.731 196.89 933.811 189.75C937.891 182.497 943.331 176.943 950.131 173.09C957.045 169.237 964.525 167.31 972.571 167.31C980.731 167.31 987.418 169.067 992.631 172.58C997.845 175.98 1001.7 181.25 1004.19 188.39C1006.68 195.417 1007.93 204.427 1007.93 215.42C1007.93 226.527 1006.74 235.65 1004.36 242.79C1002.09 249.93 998.355 255.2 993.141 258.6C988.041 262 981.185 263.7 972.571 263.7ZM981.751 233.78C984.585 233.78 987.135 233.1 989.401 231.74C991.668 230.38 993.481 228.34 994.841 225.62C996.201 222.787 996.881 219.387 996.881 215.42C996.881 211.34 996.201 207.997 994.841 205.39C993.481 202.67 991.668 200.63 989.401 199.27C987.135 197.91 984.585 197.23 981.751 197.23C978.918 197.23 976.368 197.91 974.101 199.27C971.835 200.63 970.021 202.67 968.661 205.39C967.301 207.997 966.621 211.34 966.621 215.42C966.621 219.387 967.301 222.787 968.661 225.62C970.021 228.34 971.835 230.38 974.101 231.74C976.368 233.1 978.918 233.78 981.751 233.78ZM998.071 262V249.42L997.901 215.42L996.201 181.42V135.86H1034.62V262H998.071ZM1052.82 262V143H1092.94V262H1052.82ZM1175.67 167.31C1182.81 167.31 1189.27 168.783 1195.05 171.73C1200.83 174.563 1205.36 179.04 1208.65 185.16C1212.05 191.28 1213.75 199.213 1213.75 208.96V262H1175.33V215.59C1175.33 209.81 1174.31 205.73 1172.27 203.35C1170.23 200.857 1167.45 199.61 1163.94 199.61C1161.33 199.61 1158.9 200.233 1156.63 201.48C1154.48 202.613 1152.72 204.54 1151.36 207.26C1150.11 209.98 1149.49 213.663 1149.49 218.31V262H1111.07V169.01H1147.62V196.21L1140.31 188.39C1143.94 181.363 1148.81 176.093 1154.93 172.58C1161.16 169.067 1168.08 167.31 1175.67 167.31ZM1247.77 263.7C1241.43 263.7 1236.1 261.66 1231.79 257.58C1227.49 253.387 1225.33 248.06 1225.33 241.6C1225.33 235.027 1227.49 229.757 1231.79 225.79C1236.1 221.823 1241.43 219.84 1247.77 219.84C1254.12 219.84 1259.45 221.823 1263.75 225.79C1268.06 229.757 1270.21 235.027 1270.21 241.6C1270.21 248.06 1268.06 253.387 1263.75 257.58C1259.45 261.66 1254.12 263.7 1247.77 263.7Z" fill="white"/>
</svg>
