<svg width="1500" height="523" viewBox="0 0 1500 523" fill="none" xmlns="http://www.w3.org/2000/svg">
<rect width="1500" height="522.61" rx="60" fill="black"/>
<path d="M229.992 78.1433L143.853 303.703L235.802 271.401L223.071 441.635L306.136 204.504L207.379 239.315L229.992 78.1433Z" stroke="#FFF853" stroke-width="20" stroke-linecap="round" stroke-linejoin="round"/>
<path d="M364.69 329V210H421.98C433.087 210 442.663 211.813 450.71 215.44C458.87 219.067 465.16 224.28 469.58 231.08C474 237.767 476.21 245.7 476.21 254.88C476.21 264.06 474 271.993 469.58 278.68C465.16 285.367 458.87 290.58 450.71 294.32C442.663 297.947 433.087 299.76 421.98 299.76H386.96L404.81 282.59V329H364.69ZM404.81 287.01L386.96 268.82H419.43C424.983 268.82 429.063 267.573 431.67 265.08C434.39 262.587 435.75 259.187 435.75 254.88C435.75 250.573 434.39 247.173 431.67 244.68C429.063 242.187 424.983 240.94 419.43 240.94H386.96L404.81 222.75V287.01ZM489.838 329V202.86H528.258V329H489.838ZM584.047 330.7C576.68 330.7 569.994 329.227 563.987 326.28C558.094 323.22 553.447 318.517 550.047 312.17C546.647 305.71 544.947 297.437 544.947 287.35V236.01H583.367V280.72C583.367 287.293 584.444 291.883 586.597 294.49C588.75 297.097 591.697 298.4 595.437 298.4C597.704 298.4 599.8 297.833 601.727 296.7C603.767 295.453 605.41 293.47 606.657 290.75C607.904 287.917 608.527 284.233 608.527 279.7V236.01H646.947V329H610.397V302.14L617.707 309.45C614.42 316.703 609.717 322.087 603.597 325.6C597.59 329 591.074 330.7 584.047 330.7ZM711.248 363.68C702.068 363.68 693.455 362.717 685.408 360.79C677.362 358.863 670.448 355.973 664.668 352.12L677.588 325.94C681.215 328.773 685.805 330.983 691.358 332.57C697.025 334.27 702.352 335.12 707.338 335.12C715.272 335.12 720.938 333.42 724.338 330.02C727.738 326.733 729.438 321.973 729.438 315.74V307.92L731.138 279.02L731.308 250.12V236.01H767.858V310.47C767.858 328.49 762.872 341.863 752.898 350.59C742.925 359.317 729.042 363.68 711.248 363.68ZM703.768 323.9C695.948 323.9 688.638 322.087 681.838 318.46C675.038 314.72 669.542 309.507 665.348 302.82C661.155 296.133 659.058 288.2 659.058 279.02C659.058 269.84 661.155 261.907 665.348 255.22C669.542 248.533 675.038 243.377 681.838 239.75C688.638 236.123 695.948 234.31 703.768 234.31C711.815 234.31 718.388 235.897 723.488 239.07C728.702 242.243 732.555 247.173 735.048 253.86C737.542 260.433 738.788 268.82 738.788 279.02C738.788 289.22 737.542 297.663 735.048 304.35C732.555 310.923 728.702 315.853 723.488 319.14C718.388 322.313 711.815 323.9 703.768 323.9ZM713.968 293.98C717.028 293.98 719.748 293.357 722.128 292.11C724.508 290.863 726.378 289.107 727.738 286.84C729.098 284.573 729.778 281.967 729.778 279.02C729.778 275.96 729.098 273.353 727.738 271.2C726.378 268.933 724.508 267.233 722.128 266.1C719.748 264.853 717.028 264.23 713.968 264.23C711.022 264.23 708.302 264.853 705.808 266.1C703.428 267.233 701.502 268.933 700.028 271.2C698.668 273.353 697.988 275.96 697.988 279.02C697.988 281.967 698.668 284.573 700.028 286.84C701.502 289.107 703.428 290.863 705.808 292.11C708.302 293.357 711.022 293.98 713.968 293.98ZM832.108 363.68C822.928 363.68 814.314 362.717 806.268 360.79C798.221 358.863 791.308 355.973 785.528 352.12L798.448 325.94C802.074 328.773 806.664 330.983 812.218 332.57C817.884 334.27 823.211 335.12 828.198 335.12C836.131 335.12 841.798 333.42 845.198 330.02C848.598 326.733 850.298 321.973 850.298 315.74V307.92L851.998 279.02L852.168 250.12V236.01H888.718V310.47C888.718 328.49 883.731 341.863 873.758 350.59C863.784 359.317 849.901 363.68 832.108 363.68ZM824.628 323.9C816.808 323.9 809.498 322.087 802.698 318.46C795.898 314.72 790.401 309.507 786.208 302.82C782.014 296.133 779.918 288.2 779.918 279.02C779.918 269.84 782.014 261.907 786.208 255.22C790.401 248.533 795.898 243.377 802.698 239.75C809.498 236.123 816.808 234.31 824.628 234.31C832.674 234.31 839.248 235.897 844.348 239.07C849.561 242.243 853.414 247.173 855.908 253.86C858.401 260.433 859.648 268.82 859.648 279.02C859.648 289.22 858.401 297.663 855.908 304.35C853.414 310.923 849.561 315.853 844.348 319.14C839.248 322.313 832.674 323.9 824.628 323.9ZM834.828 293.98C837.888 293.98 840.608 293.357 842.988 292.11C845.368 290.863 847.238 289.107 848.598 286.84C849.958 284.573 850.638 281.967 850.638 279.02C850.638 275.96 849.958 273.353 848.598 271.2C847.238 268.933 845.368 267.233 842.988 266.1C840.608 264.853 837.888 264.23 834.828 264.23C831.881 264.23 829.161 264.853 826.668 266.1C824.288 267.233 822.361 268.933 820.888 271.2C819.528 273.353 818.848 275.96 818.848 279.02C818.848 281.967 819.528 284.573 820.888 286.84C822.361 289.107 824.288 290.863 826.668 292.11C829.161 293.357 831.881 293.98 834.828 293.98ZM957.047 330.7C945.714 330.7 935.797 328.603 927.297 324.41C918.91 320.217 912.394 314.493 907.747 307.24C903.1 299.873 900.777 291.6 900.777 282.42C900.777 273.013 903.044 264.683 907.577 257.43C912.224 250.177 918.514 244.51 926.447 240.43C934.494 236.35 943.504 234.31 953.477 234.31C962.657 234.31 971.1 236.123 978.807 239.75C986.627 243.377 992.86 248.76 997.507 255.9C1002.27 263.04 1004.65 271.88 1004.65 282.42C1004.65 283.78 1004.59 285.31 1004.48 287.01C1004.36 288.597 1004.25 290.07 1004.14 291.43H932.567V272.9H983.737L969.287 277.83C969.287 274.203 968.607 271.143 967.247 268.65C966 266.043 964.244 264.06 961.977 262.7C959.71 261.227 956.99 260.49 953.817 260.49C950.644 260.49 947.867 261.227 945.487 262.7C943.22 264.06 941.464 266.043 940.217 268.65C938.97 271.143 938.347 274.203 938.347 277.83V283.61C938.347 287.577 939.14 290.977 940.727 293.81C942.314 296.643 944.58 298.797 947.527 300.27C950.474 301.63 954.044 302.31 958.237 302.31C962.544 302.31 966.057 301.743 968.777 300.61C971.61 299.477 974.557 297.777 977.617 295.51L997.677 315.74C993.144 320.613 987.534 324.353 980.847 326.96C974.274 329.453 966.34 330.7 957.047 330.7ZM1057.57 330.7C1049.52 330.7 1042.04 328.773 1035.13 324.92C1028.33 320.953 1022.89 315.4 1018.81 308.26C1014.73 301.007 1012.69 292.393 1012.69 282.42C1012.69 272.447 1014.73 263.89 1018.81 256.75C1022.89 249.497 1028.33 243.943 1035.13 240.09C1042.04 236.237 1049.52 234.31 1057.57 234.31C1065.73 234.31 1072.42 236.067 1077.63 239.58C1082.84 242.98 1086.7 248.25 1089.19 255.39C1091.68 262.417 1092.93 271.427 1092.93 282.42C1092.93 293.527 1091.74 302.65 1089.36 309.79C1087.09 316.93 1083.35 322.2 1078.14 325.6C1073.04 329 1066.18 330.7 1057.57 330.7ZM1066.75 300.78C1069.58 300.78 1072.13 300.1 1074.4 298.74C1076.67 297.38 1078.48 295.34 1079.84 292.62C1081.2 289.787 1081.88 286.387 1081.88 282.42C1081.88 278.34 1081.2 274.997 1079.84 272.39C1078.48 269.67 1076.67 267.63 1074.4 266.27C1072.13 264.91 1069.58 264.23 1066.75 264.23C1063.92 264.23 1061.37 264.91 1059.1 266.27C1056.83 267.63 1055.02 269.67 1053.66 272.39C1052.3 274.997 1051.62 278.34 1051.62 282.42C1051.62 286.387 1052.3 289.787 1053.66 292.62C1055.02 295.34 1056.83 297.38 1059.1 298.74C1061.37 300.1 1063.92 300.78 1066.75 300.78ZM1083.07 329V316.42L1082.9 282.42L1081.2 248.42V202.86H1119.62V329H1083.07ZM1137.82 329V210H1177.94V329H1137.82ZM1260.67 234.31C1267.81 234.31 1274.27 235.783 1280.05 238.73C1285.83 241.563 1290.36 246.04 1293.65 252.16C1297.05 258.28 1298.75 266.213 1298.75 275.96V329H1260.33V282.59C1260.33 276.81 1259.31 272.73 1257.27 270.35C1255.23 267.857 1252.45 266.61 1248.94 266.61C1246.33 266.61 1243.9 267.233 1241.63 268.48C1239.48 269.613 1237.72 271.54 1236.36 274.26C1235.11 276.98 1234.49 280.663 1234.49 285.31V329H1196.07V236.01H1232.62V263.21L1225.31 255.39C1228.94 248.363 1233.81 243.093 1239.93 239.58C1246.16 236.067 1253.08 234.31 1260.67 234.31ZM1332.77 330.7C1326.43 330.7 1321.1 328.66 1316.79 324.58C1312.49 320.387 1310.33 315.06 1310.33 308.6C1310.33 302.027 1312.49 296.757 1316.79 292.79C1321.1 288.823 1326.43 286.84 1332.77 286.84C1339.12 286.84 1344.45 288.823 1348.75 292.79C1353.06 296.757 1355.21 302.027 1355.21 308.6C1355.21 315.06 1353.06 320.387 1348.75 324.58C1344.45 328.66 1339.12 330.7 1332.77 330.7Z" fill="white"/>
</svg>
