<svg width="1500" height="1500" viewBox="0 0 1500 1500" fill="none" xmlns="http://www.w3.org/2000/svg">
<path d="M806.25 56.25C806.25 41.3316 800.324 27.0242 789.775 16.4752C779.226 5.92632 764.918 0 750 0C735.082 0 720.774 5.92632 710.225 16.4752C699.676 27.0242 693.75 41.3316 693.75 56.25V168.75C693.75 183.668 699.676 197.976 710.225 208.525C720.774 219.074 735.082 225 750 225C764.918 225 779.226 219.074 789.775 208.525C800.324 197.976 806.25 183.668 806.25 168.75V56.25ZM1125 750C1125 849.456 1085.49 944.839 1015.17 1015.17C944.839 1085.49 849.456 1125 750 1125C650.544 1125 555.161 1085.49 484.835 1015.17C414.509 944.839 375 849.456 375 750C375 650.544 414.509 555.161 484.835 484.835C555.161 414.509 650.544 375 750 375C849.456 375 944.839 414.509 1015.17 484.835C1085.49 555.161 1125 650.544 1125 750V750ZM1012.5 750C1012.5 680.381 984.844 613.613 935.616 564.384C886.387 515.156 819.619 487.5 750 487.5V1012.5C819.619 1012.5 886.387 984.844 935.616 935.616C984.844 886.387 1012.5 819.619 1012.5 750V750ZM1500 750C1500 764.918 1494.07 779.226 1483.52 789.775C1472.98 800.324 1458.67 806.25 1443.75 806.25H1331.25C1316.33 806.25 1302.02 800.324 1291.48 789.775C1280.93 779.226 1275 764.918 1275 750C1275 735.082 1280.93 720.774 1291.48 710.225C1302.02 699.676 1316.33 693.75 1331.25 693.75H1443.75C1458.67 693.75 1472.98 699.676 1483.52 710.225C1494.07 720.774 1500 735.082 1500 750ZM806.25 1331.25C806.25 1316.33 800.324 1302.02 789.775 1291.48C779.226 1280.93 764.918 1275 750 1275C735.082 1275 720.774 1280.93 710.225 1291.48C699.676 1302.02 693.75 1316.33 693.75 1331.25V1443.75C693.75 1458.67 699.676 1472.98 710.225 1483.52C720.774 1494.07 735.082 1500 750 1500C764.918 1500 779.226 1494.07 789.775 1483.52C800.324 1472.98 806.25 1458.67 806.25 1443.75V1331.25ZM225 750C225 764.918 219.074 779.226 208.525 789.775C197.976 800.324 183.668 806.25 168.75 806.25H56.25C41.3316 806.25 27.0242 800.324 16.4752 789.775C5.92632 779.226 0 764.918 0 750C0 735.082 5.92632 720.774 16.4752 710.225C27.0242 699.676 41.3316 693.75 56.25 693.75H168.75C183.668 693.75 197.976 699.676 208.525 710.225C219.074 720.774 225 735.082 225 750ZM246 166.5C240.85 160.973 234.64 156.541 227.74 153.466C220.84 150.392 213.392 148.739 205.839 148.606C198.286 148.472 190.784 149.862 183.78 152.691C176.776 155.52 170.414 159.731 165.072 165.072C159.731 170.414 155.52 176.776 152.691 183.78C149.862 190.784 148.472 198.286 148.606 205.839C148.739 213.392 150.392 220.84 153.466 227.74C156.541 234.64 160.973 240.85 166.5 246L279 358.5C289.663 368.436 303.767 373.845 318.339 373.588C332.912 373.331 346.816 367.428 357.122 357.122C367.428 346.816 373.331 332.912 373.588 318.339C373.845 303.767 368.436 289.663 358.5 279L246 166.5V166.5ZM166.5 1333.5C177.047 1344.03 191.344 1349.95 206.25 1349.95C221.156 1349.95 235.453 1344.03 246 1333.5L358.5 1221C368.436 1210.34 373.845 1196.23 373.588 1181.66C373.331 1167.09 367.428 1153.18 357.122 1142.88C346.816 1132.57 332.912 1126.67 318.339 1126.41C303.767 1126.15 289.663 1131.56 279 1141.5L166.5 1254C155.966 1264.55 150.049 1278.84 150.049 1293.75C150.049 1308.66 155.966 1322.95 166.5 1333.5V1333.5ZM1254 166.5C1259.15 160.973 1265.36 156.541 1272.26 153.466C1279.16 150.392 1286.61 148.739 1294.16 148.606C1301.71 148.472 1309.22 149.862 1316.22 152.691C1323.22 155.52 1329.59 159.731 1334.93 165.072C1340.27 170.414 1344.48 176.776 1347.31 183.78C1350.14 190.784 1351.53 198.286 1351.39 205.839C1351.26 213.392 1349.61 220.84 1346.53 227.74C1343.46 234.64 1339.03 240.85 1333.5 246L1221 358.5C1215.85 364.027 1209.64 368.459 1202.74 371.534C1195.84 374.608 1188.39 376.261 1180.84 376.394C1173.29 376.528 1165.78 375.138 1158.78 372.309C1151.78 369.48 1145.41 365.269 1140.07 359.928C1134.73 354.586 1130.52 348.224 1127.69 341.22C1124.86 334.216 1123.47 326.714 1123.61 319.161C1123.74 311.608 1125.39 304.16 1128.47 297.26C1131.54 290.36 1135.97 284.15 1141.5 279L1254 166.5ZM1333.5 1333.5C1322.95 1344.03 1308.66 1349.95 1293.75 1349.95C1278.84 1349.95 1264.55 1344.03 1254 1333.5L1141.5 1221C1131.56 1210.34 1126.15 1196.23 1126.41 1181.66C1126.67 1167.09 1132.57 1153.18 1142.88 1142.88C1153.18 1132.57 1167.09 1126.67 1181.66 1126.41C1196.23 1126.15 1210.34 1131.56 1221 1141.5L1333.5 1254C1344.03 1264.55 1349.95 1278.84 1349.95 1293.75C1349.95 1308.66 1344.03 1322.95 1333.5 1333.5V1333.5Z" fill="black"/>
<path d="M767 1064V1014H717C767 1014 767 1014 767 1014V1014V1013.99V1013.98V1013.97V1013.96V1013.94V1013.92V1013.9V1013.88V1013.86V1013.83V1013.8V1013.77V1013.73V1013.7V1013.66V1013.62V1013.58V1013.53V1013.48V1013.43V1013.38V1013.32V1013.27V1013.21V1013.15V1013.08V1013.01V1012.95V1012.87V1012.8V1012.73V1012.65V1012.57V1012.49V1012.4V1012.31V1012.23V1012.13V1012.04V1011.94V1011.85V1011.75V1011.64V1011.54V1011.43V1011.32V1011.21V1011.1V1010.98V1010.86V1010.74V1010.62V1010.49V1010.37V1010.24V1010.11V1009.97V1009.84V1009.7V1009.56V1009.41V1009.27V1009.12V1008.97V1008.82V1008.67V1008.51V1008.36V1008.2V1008.03V1007.87V1007.7V1007.53V1007.36V1007.19V1007.02V1006.84V1006.66V1006.48V1006.29V1006.11V1005.92V1005.73V1005.54V1005.34V1005.15V1004.95V1004.75V1004.55V1004.34V1004.13V1003.93V1003.71V1003.5V1003.29V1003.07V1002.85V1002.63V1002.4V1002.18V1001.95V1001.72V1001.49V1001.25V1001.02V1000.78V1000.54V1000.3V1000.05V999.807V999.559V999.308V999.056V998.801V998.545V998.286V998.026V997.763V997.499V997.232V996.963V996.693V996.42V996.145V995.869V995.59V995.309V995.027V994.742V994.455V994.167V993.876V993.583V993.289V992.992V992.694V992.393V992.091V991.786V991.48V991.171V990.861V990.549V990.235V989.919V989.6V989.28V988.958V988.635V988.309V987.981V987.651V987.32V986.986V986.651V986.313V985.974V985.633V985.29V984.945V984.598V984.249V983.898V983.546V983.191V982.835V982.477V982.117V981.755V981.391V981.025V980.658V980.288V979.917V979.544V979.169V978.792V978.413V978.033V977.65V977.266V976.88V976.492V976.102V975.711V975.317V974.922V974.525V974.126V973.725V973.323V972.919V972.513V972.105V971.695V971.283V970.87V970.455V970.038V969.62V969.199V968.777V968.353V967.927V967.5V967.07V966.639V966.206V965.772V965.335V964.897V964.457V964.016V963.573V963.127V962.681V962.232V961.782V961.33V960.876V960.421V959.963V959.504V959.044V958.582V958.117V957.652V957.184V956.715V956.244V955.772V955.297V954.822V954.344V953.865V953.384V952.901V952.417V951.931V951.443V950.954V950.463V949.97V949.476V948.98V948.482V947.983V947.482V946.98V946.475V945.97V945.462V944.953V944.442V943.93V943.416V942.9V942.383V941.864V941.344V940.822V940.298V939.773V939.246V938.718V938.188V937.656V937.123V936.588V936.052V935.514V934.975V934.433V933.891V933.347V932.801V932.254V931.705V931.154V930.602V930.049V929.494V928.937V928.379V927.819V927.258V926.695V926.131V925.565V924.998V924.429V923.858V923.286V922.713V922.138V921.562V920.984V920.404V919.823V919.241V918.657V918.072V917.485V916.897V916.307V915.715V915.123V914.528V913.933V913.336V912.737V912.137V911.535V910.932V910.328V909.722V909.115V908.506V907.896V907.284V906.671V906.056V905.44V904.823V904.204V903.584V902.962V902.339V901.715V901.089V900.462V899.833V899.203V898.572V897.939V897.305V896.669V896.032V895.394V894.754V894.113V893.47V892.827V892.181V891.535V890.887V890.238V889.587V888.935V888.282V887.627V886.971V886.314V885.655V884.995V884.334V883.671V883.007V882.342V881.675V881.007V880.338V879.667V878.995V878.322V877.648V876.972V876.295V875.616V874.937V874.256V873.574V872.89V872.205V871.519V870.832V870.143V869.453V868.762V868.07V867.376V866.681V865.985V865.288V864.589V863.889V863.188V862.486V861.782V861.078V860.372V859.664V858.956V858.246V857.535V856.823V856.11V855.395V854.679V853.962V853.244V852.525V851.804V851.083V850.36V849.636V848.91V848.184V847.456V846.727V845.997V845.266V844.534V843.801V843.066V842.33V841.593V840.855V840.116V839.376V838.634V837.892V837.148V836.403V835.657V834.91V834.161V833.412V832.661V831.91V831.157V830.403V829.648V828.892V828.135V827.377V826.618V825.857V825.096V824.333V823.569V822.805V822.039V821.272V820.504V819.735V818.965V818.194V817.421V816.648V815.874V815.098V814.322V813.545V812.766V811.987V811.206V810.424V809.642V808.858V808.073V807.288V806.501V805.713V804.924V804.135V803.344V802.552V801.759V800.966V800.171V799.375V798.578V797.781V796.982V796.182V795.382V794.58V793.777V792.974V792.169V791.364V790.557V789.75V788.942V788.132V787.322V786.511V785.699V784.886V784.072V783.257V782.441V781.624V780.806V779.988V779.168V778.348V777.526V776.704V775.881V775.057V774.232V773.406V772.579V771.751V770.923V770.093V769.263V768.432V767.6V766.769V765.938V765.108V764.278V763.448V762.619V761.79V760.962V760.134V759.306V758.479V757.652V756.825V755.999V755.174V754.349V753.524V752.7V751.876V751.052V750.229V749.407V748.585V747.763V746.942V746.122V745.302V744.482V743.663V742.845V742.027V741.209V740.392V739.575V738.759V737.944V737.129V736.315V735.501V734.688V733.875V733.063V732.251V731.44V730.63V729.82V729.01V728.202V727.394V726.586V725.779V724.973V724.167V723.362V722.558V721.754V720.951V720.149V719.347V718.546V717.745V716.945V716.146V715.347V714.55V713.752V712.956V712.16V711.365V710.571V709.777V708.984V708.192V707.4V706.609V705.819V705.03V704.241V703.453V702.666V701.88V701.094V700.309V699.525V698.742V697.959V697.178V696.397V695.617V694.837V694.059V693.281V692.504V691.728V690.953V690.178V689.405V688.632V687.86V687.089V686.319V685.549V684.781V684.013V683.247V682.481V681.716V680.952V680.188V679.426V678.665V677.904V677.145V676.386V675.628V674.871V674.116V673.361V672.607V671.854V671.102V670.35V669.6V668.851V668.103V667.356V666.609V665.864V665.12V664.377V663.634V662.893V662.153V661.414V660.675V659.938V659.202V658.467V657.733V657V656.268V655.537V654.807V654.079V653.351V652.624V651.899V651.174V650.451V649.729V649.008V648.288V647.569V646.851V646.134V645.419V644.704V643.991V643.279V642.568V641.858V641.149V640.442V639.735V639.03V638.326V637.623V636.922V636.221V635.522V634.824V634.127V633.432V632.737V632.044V631.352V630.661V629.972V629.284V628.597V627.911V627.226V626.543V625.861V625.181V624.501V623.823V623.146V622.471V621.796V621.123V620.452V619.781V619.112V618.445V617.778V617.113V616.45V615.787V615.126V614.467V613.808V613.151V612.496V611.842V611.189V610.537V609.887V609.239V608.591V607.945V607.301V606.658V606.016V605.376V604.737V604.1V603.464V602.83V602.196V601.565V600.935V600.306V599.679V599.053V598.429V597.806V597.185V596.565V595.947V595.33V594.715V594.101V593.488V592.878V592.268V591.661V591.055V590.45V589.847V589.245V588.645V588.047V587.45V586.855V586.261V585.669V585.078V584.489V583.902V583.316V582.732V582.15V581.569V580.989V580.412V579.836V579.261V578.688V578.117V577.548V576.98V576.414V575.849V575.286V574.725V574.166V573.608V573.052V572.497V571.945V571.394V570.844V570.297V569.751V569.207V568.664V568.123V567.585V567.047V566.512V565.978V565.446V564.916V564.388V563.861V563.336V562.813V562.292V561.772V561.254V560.738V560.224V559.712V559.202V558.693V558.186V557.681V557.178V556.677V556.177V555.68V555.184V554.69V554.198V553.708V553.22V552.733V552.249V551.766V551.285V550.807V550.33V549.855V549.382V548.91V548.441V547.974V547.509V547.045V546.584V546.124V545.667V545.211V544.757V544.306V543.856V543.408V542.963V542.519V542.077V541.638V541.2V540.764V540.33V539.899V539.469V539.042V538.616V538.193V537.771V537.352V536.934V536.519V536.106V535.695V535.285V534.878V534.473V534.071V533.67V533.271V532.875V532.48V532.088V531.698V531.31V530.924V530.54V530.158V529.779V529.401V529.026V528.653V528.282V527.914V527.547V527.183V526.821V526.461V526.103V525.747V525.394V525.043V524.694V524.347V524.003V523.66V523.32V522.982V522.647V522.314V521.983V521.654V521.327V521.003V520.681V520.361V520.044V519.729V519.416V519.105V518.797V518.491V518.188V517.886V517.587V517.291V516.996V516.704V516.415V516.128V515.843V515.56V515.28V515.002V514.727V514.454V514.183V513.915V513.649V513.385V513.124V512.865V512.609V512.355V512.104V511.855V511.608V511.364V511.122V510.883V510.646V510.412V510.18V509.951V509.724V509.5V509.278V509.058V508.841V508.627V508.415V508.205V507.998V507.794V507.592V507.392V507.196V507.001V506.81V506.62V506.434V506.249V506.068V505.889V505.713V505.539V505.367V505.199V505.033V504.869V504.708V504.55V504.394V504.241V504.091V503.943V503.798V503.655V503.516V503.378V503.244V503.112V502.983V502.856V502.732V502.611V502.492V502.376V502.263V502.153V502.045V501.94V501.838V501.738V501.641V501.547V501.455V501.367V501.281V501.197V501.117V501.039V500.964V500.892V500.822V500.756V500.692V500.631V500.572V500.517V500.464V500.414V500.367V500.323V500.281V500.243V500.207V500.174V500.144V500.117V500.092V500.071V500.052V500.036V500.023V500.013V500.006V500.001C767 500 767 500 717 500H767V450H717C644.301 450 582.183 489.155 539.915 545.149C497.667 601.117 473 676.183 473 757C473 837.817 497.667 912.883 539.915 968.851C582.183 1024.84 644.301 1064 717 1064H767Z" fill="#FFF853" stroke="black" stroke-width="100"/>
</svg>
