<svg width="1500" height="1582" viewBox="0 0 1500 1582" fill="none" xmlns="http://www.w3.org/2000/svg">
<path d="M703.505 1581.43C384.779 1581.43 40.6162 1381.53 40.6162 942.817C40.6162 504.103 384.779 304.208 703.505 304.208C880.533 304.208 1043.94 362.404 1165.09 468.646C1296.38 585.294 1366.14 749.732 1366.14 942.817C1366.14 1135.9 1296.38 1299.31 1165.09 1415.83C1043.94 1522.07 879.376 1581.43 703.505 1581.43Z" fill="url(#paint0_radial_22_22)"/>
<path d="M1250.65 563.2C1313.34 667.258 1345.45 786.989 1343.27 908.519C1343.27 1101.22 1273.51 1265.01 1142.22 1381.53C1021.08 1487.78 856.638 1547.13 680.638 1547.13C474.32 1547.13 257.597 1463.24 130.286 1285.06C253.229 1486.88 484.341 1581.43 703.505 1581.43C879.376 1581.43 1043.94 1522.08 1165.09 1415.83C1296.38 1299.19 1366.14 1135.9 1366.14 942.819C1366.14 797.266 1326.44 667.9 1250.65 563.2Z" fill="#EB8F00"/>
<path opacity="0.8" d="M320.672 1109.96C444.835 1109.96 545.489 1015.05 545.489 897.985C545.489 780.917 444.835 686.015 320.672 686.015C196.509 686.015 95.8545 780.917 95.8545 897.985C95.8545 1015.05 196.509 1109.96 320.672 1109.96Z" fill="url(#paint1_radial_22_22)"/>
<path opacity="0.8" d="M1096.62 1109.96C1220.78 1109.96 1321.43 1015.05 1321.43 897.985C1321.43 780.917 1220.78 686.015 1096.62 686.015C972.454 686.015 871.8 780.917 871.8 897.985C871.8 1015.05 972.454 1109.96 1096.62 1109.96Z" fill="url(#paint2_radial_22_22)"/>
<path d="M194.776 235.095C244.442 235.095 284.703 206.337 284.703 170.861C284.703 135.386 244.442 106.628 194.776 106.628C145.111 106.628 104.85 135.386 104.85 170.861C104.85 206.337 145.111 235.095 194.776 235.095Z" fill="#FF00A2"/>
<path d="M573.071 354.181C594.142 333.11 588.854 293.66 561.26 266.067C533.666 238.474 494.216 233.188 473.145 254.259C452.074 275.331 457.362 314.781 484.956 342.374C512.55 369.966 552 375.253 573.071 354.181Z" fill="#FD3B3B"/>
<path d="M848.646 251.745C895.776 215.266 920.253 167.955 903.316 146.074C886.38 124.192 834.443 136.025 787.313 172.504C740.183 208.983 715.706 256.293 732.643 278.175C749.58 300.057 801.516 288.224 848.646 251.745Z" fill="#00EEFF"/>
<path d="M219.934 1099.75C237.753 1089.46 233.505 1048.75 210.446 1008.81C187.387 968.87 154.249 944.833 136.43 955.12C118.611 965.408 122.859 1006.13 145.918 1046.06C168.977 1086 202.115 1110.04 219.934 1099.75Z" fill="#0048FF"/>
<path d="M1126.16 1468.38C1150.99 1468.38 1171.13 1436.74 1171.13 1397.72C1171.13 1358.7 1150.99 1327.06 1126.16 1327.06C1101.33 1327.06 1081.2 1358.7 1081.2 1397.72C1081.2 1436.74 1101.33 1468.38 1126.16 1468.38Z" fill="#F63BBE"/>
<path d="M1383.52 732.66C1421.23 706.114 1445.18 675.188 1437.01 663.584C1428.85 651.981 1391.65 664.094 1353.94 690.64C1316.23 717.187 1292.28 748.113 1300.45 759.716C1308.62 771.32 1345.81 759.206 1383.52 732.66Z" fill="#00CC00"/>
<path d="M175.253 1533.08C190.083 1523.35 183.175 1486.61 159.822 1451.01C136.469 1415.42 105.515 1394.45 90.685 1404.18C75.8545 1413.91 82.7632 1450.66 106.116 1486.25C129.469 1521.84 160.422 1542.81 175.253 1533.08Z" fill="#0048FF"/>
<path d="M81.4263 1282.03C123.89 1279.03 157.298 1262.25 156.044 1244.55C154.791 1226.86 119.351 1214.95 76.8875 1217.96C34.4237 1220.97 1.01606 1237.75 2.26943 1255.45C3.52279 1273.14 38.9625 1285.04 81.4263 1282.03Z" fill="#7ACDED"/>
<path d="M196.3 1113.78C247.271 1110.4 287.944 1097.9 287.144 1085.86C286.345 1073.83 244.376 1066.82 193.404 1070.2C142.432 1073.59 101.76 1086.09 102.559 1098.12C103.359 1110.16 145.328 1117.17 196.3 1113.78Z" fill="#FF82B2"/>
<path d="M1413.92 982.771C1403.01 945.002 1376.93 913.399 1341.98 895.414C1282.89 863.297 1208.89 885.265 1176.9 944.36C1176.65 944.745 1176.52 945.13 1176.26 945.516C1163.41 969.726 1160.66 998.034 1168.6 1024.27C1176.55 1050.5 1194.54 1072.53 1218.66 1085.54C1238.57 1096.72 1261.95 1099.93 1284.17 1094.54C1307.04 1089.4 1326.31 1074.37 1336.84 1053.43C1348.28 1029.28 1347.25 1001.01 1334.28 977.633C1329.1 967.528 1321.43 958.918 1311.98 952.621C1302.54 946.324 1291.64 942.551 1280.32 941.662C1267.09 941.405 1256.3 951.939 1256.04 965.171C1255.91 977.119 1264.65 987.396 1276.47 989.194C1283.02 989.58 1288.93 993.562 1291.88 999.472C1296.38 1008.59 1297.28 1019.26 1294.45 1029.02C1292.31 1033.27 1289.23 1036.99 1285.45 1039.88C1281.67 1042.77 1277.28 1044.77 1272.61 1045.72C1262.21 1048.42 1251.16 1047 1241.78 1041.87C1228.93 1035.06 1219.3 1023.5 1214.8 1009.75C1210.95 995.618 1212.36 980.587 1218.66 967.355C1223.1 958.696 1229.26 951.038 1236.77 944.851C1244.29 938.665 1252.98 934.082 1262.33 931.384C1281.22 925.989 1301.26 927.787 1318.86 936.523C1341.85 949.113 1358.94 970.438 1366.39 995.618C1374.23 1020.93 1371.4 1048.29 1358.68 1071.41C1334.28 1117.66 1286.74 1148.49 1217.37 1148.49C1177.55 1148.49 940.524 1142.07 940.524 1142.07L943.351 1201.16L1214.8 1197.31C1295.74 1197.31 1362.54 1165.19 1401.08 1093.25C1421.38 1060.11 1426 1019.64 1413.92 982.771Z" fill="url(#paint3_linear_22_22)"/>
<path d="M785.724 1172.9C793.56 1181.25 799.598 1191.02 803.709 1201.68L950.804 1200.78C950.804 1181.51 948.235 1162.24 948.235 1141.69C909.694 1140.4 830.302 1139.12 805.636 1138.22C802.092 1151.47 794.931 1163.48 784.953 1172.9H785.724Z" fill="#7F0099"/>
<path d="M1232.79 682.159L1277.76 688.582L1289.32 643.618L1295.74 617.925L1037.52 581.954C1154.43 670.597 1225.08 682.159 1232.79 682.159ZM1439.62 47.5322L1335.57 106.627L1309.87 120.758L1417.78 136.174C1425.49 104.058 1439.62 47.5322 1439.62 47.5322ZM1209.67 177.284L1103.04 237.663L1381.81 277.488L1399.8 204.262L1209.67 177.284ZM905.201 349.429H903.917L1347.13 413.663L1363.83 345.575L1002.84 294.189L905.201 349.429ZM942.457 497.166L1312.44 549.838L1330.43 480.466L884.646 416.232C889.785 430.363 905.201 458.626 942.457 497.166Z" fill="#FF4545"/>
<path d="M1002.83 294.189L1363.82 345.576L1381.81 277.488L1103.04 237.664L1002.83 294.189ZM1410.07 164.438C1410.07 164.438 1413.93 146.452 1416.49 137.459L1308.58 122.043L1208.38 178.569L1398.51 205.547L1410.07 164.438ZM866.656 369.985L880.788 411.094C881.301 413.406 882.201 415.59 883.357 417.517L1329.14 481.751L1345.84 413.663L902.627 350.714L866.656 369.985ZM1032.38 578.101C1033.66 579.386 1036.23 580.67 1037.52 581.955L1295.74 619.21L1312.44 551.123L942.452 498.451C970.586 526.971 1000.65 553.564 1032.38 578.101Z" fill="#FF9C9C"/>
<path d="M1438.34 123.328C1472.39 123.328 1500 95.7202 1500 61.6641C1500 27.608 1472.39 0 1438.34 0C1404.28 0 1376.67 27.608 1376.67 61.6641C1376.67 95.7202 1404.28 123.328 1438.34 123.328Z" fill="#C93737"/>
<path d="M809.363 1157.87C828.259 1141.54 840.092 1118.52 842.38 1093.64C845.977 1068.59 838.525 1043.28 821.825 1024.27C791.892 984.958 708.645 994.721 708.645 994.721C686.292 995.62 660.47 1006.28 663.682 1031.98C665.751 1039.22 669.728 1045.77 675.197 1050.94C680.667 1056.12 687.427 1059.73 694.771 1061.4C727.659 1069.23 774.549 1061.4 775.834 1094.8C777.375 1132.31 719.822 1116.89 715.197 1156.59C710.573 1196.29 775.834 1191.02 775.834 1218.38C775.834 1239.32 754.38 1242.92 731.77 1247.67C712.371 1251.65 675.116 1257.69 672.161 1279.92C669.206 1302.14 681.924 1329.51 734.339 1321.54C816.815 1308.69 844.563 1263.86 844.563 1236.11C845.077 1206.05 832.231 1177.4 809.363 1157.87ZM526.993 818.722L525.066 816.281L519.928 809.729L513.376 802.663C510.806 799.837 507.723 796.754 504.64 793.671C501.428 790.587 498.088 787.633 494.491 784.935C491.28 782.494 487.939 780.31 484.342 778.383C481.901 776.97 479.204 775.942 476.377 775.428C475.526 775.3 474.66 775.3 473.808 775.428H472.78H475.093H468.412C466.742 775.428 468.412 775.428 468.412 775.428H469.312C470.339 775.428 469.312 775.428 469.312 775.428C468.849 775.3 468.361 775.3 467.899 775.428C465.072 775.942 462.374 776.97 459.934 778.383C456.337 780.31 452.996 782.494 449.785 784.935C446.445 787.504 442.976 790.587 439.636 793.671C433.341 799.837 427.817 806.517 423.963 810.5L417.796 817.822L414.97 821.034C406.519 830.388 394.921 836.304 382.387 837.655C369.853 839.005 357.261 835.695 347.011 828.357C333.522 818.979 326.585 802.663 329.154 786.348C329.154 786.348 330.054 781.466 332.366 773.501C335.963 761.168 341.102 749.349 347.525 738.301C357.546 720.059 371.163 704.001 387.478 691.154C398.655 682.675 410.988 675.866 424.22 671.113C427.817 669.7 431.671 668.544 435.396 667.645C439.636 666.36 443.875 665.461 448.243 664.818L455.694 663.791H484.214C488.196 663.791 492.307 664.818 496.29 665.461C517.946 669.379 538.37 678.359 555.898 691.668C572.471 704.258 586.473 720.059 596.751 738.173C600.476 744.468 603.816 751.148 606.514 757.957C608.955 763.609 610.754 769.647 612.295 774.144C613.837 778.64 613.708 780.824 614.222 783.008V785.963C615.878 797.885 612.737 809.978 605.488 819.588C598.238 829.197 587.473 835.539 575.554 837.221C575.04 837.349 574.526 837.349 574.141 837.349C556.284 840.047 538.17 832.981 526.993 818.722ZM1004.12 818.722L1002.19 816.281L997.054 809.729L991.273 802.663C988.703 799.837 985.62 796.754 982.537 793.671C979.325 790.587 975.985 787.633 972.388 784.935C969.176 782.494 965.836 780.31 962.239 778.383C959.798 776.97 957.1 775.942 954.403 775.428C953.551 775.3 952.685 775.3 951.833 775.428H950.805H952.733H946.052C944.254 775.428 946.052 775.428 946.052 775.428H946.952C947.979 775.428 946.952 775.428 946.952 775.428H945.538C942.841 775.942 940.143 776.97 937.702 778.383C934.105 780.31 930.765 782.494 927.553 784.935C923.956 787.633 920.616 790.587 917.404 793.671C910.981 799.837 905.585 806.517 901.603 810.5L895.436 817.822L892.61 821.034C884.159 830.388 872.561 836.304 860.027 837.655C847.493 839.005 834.901 835.695 824.651 828.357C811.162 818.979 804.225 802.663 806.794 786.348C806.794 786.348 807.693 781.466 810.134 773.501C813.346 761.04 818.099 748.964 824.266 737.659C834.543 719.545 848.546 703.744 865.118 691.154C876.295 682.675 888.756 675.866 901.988 671.113C905.585 669.7 909.311 668.544 913.036 667.645C917.276 666.36 921.515 665.461 925.883 664.818L933.334 663.791H961.854C965.965 663.791 969.947 664.818 973.93 665.461C995.641 669.186 1016.07 678.05 1033.67 691.154C1050.24 703.744 1064.11 719.545 1074.52 737.659C1078.24 743.954 1081.46 750.634 1084.15 757.443C1086.47 762.71 1088.39 768.106 1089.94 773.63C1090.83 776.584 1091.48 779.539 1091.86 782.494V785.449C1092.71 791.32 1092.4 797.302 1090.93 803.052C1089.47 808.801 1086.88 814.205 1083.33 818.954C1079.77 823.703 1075.31 827.705 1070.21 830.729C1065.1 833.753 1059.45 835.741 1053.58 836.578C1053.07 836.707 1052.55 836.707 1051.91 836.835C1033.92 839.662 1015.68 832.853 1004.12 818.722Z" fill="#422B0D"/>
<rect x="963.813" y="376.286" width="300" height="104.522" rx="52.261" transform="rotate(7.80446 963.813 376.286)" fill="url(#paint4_linear_22_22)"/>
<path d="M1008.9 402.49L988.208 440.267L1005.24 436.786L998.868 466.563L1019.29 426.667L1001 430.427L1008.9 402.49Z" stroke="#FFF853" stroke-width="5" stroke-linecap="round" stroke-linejoin="round"/>
<path d="M1024.16 450.792L1027.49 426.519L1039.18 428.121C1041.44 428.432 1043.34 429.069 1044.88 430.034C1046.45 431.002 1047.58 432.241 1048.3 433.752C1049.01 435.239 1049.24 436.919 1048.98 438.792C1048.73 440.664 1048.05 442.22 1046.97 443.461C1045.88 444.701 1044.45 445.589 1042.68 446.123C1040.94 446.638 1038.93 446.74 1036.67 446.43L1029.52 445.451L1033.64 442.448L1032.35 451.914L1024.16 450.792ZM1033.52 443.349L1030.39 439.14L1037.01 440.048C1038.14 440.203 1039.01 440.063 1039.61 439.627C1040.24 439.194 1040.61 438.539 1040.73 437.66C1040.85 436.782 1040.67 436.05 1040.18 435.466C1039.72 434.884 1038.92 434.516 1037.79 434.361L1031.17 433.453L1035.32 430.242L1033.52 443.349ZM1049.69 454.291L1053.22 428.562L1061.05 429.636L1057.53 455.365L1049.69 454.291ZM1068.86 457.272C1067.36 457.066 1066.03 456.578 1064.89 455.809C1063.77 455.02 1062.96 453.931 1062.44 452.542C1061.93 451.129 1061.81 449.394 1062.1 447.336L1063.53 436.864L1071.37 437.938L1070.12 447.058C1069.93 448.399 1070.03 449.365 1070.39 449.957C1070.76 450.549 1071.32 450.897 1072.09 451.002C1072.55 451.065 1072.99 451.008 1073.42 450.831C1073.87 450.634 1074.26 450.275 1074.59 449.755C1074.92 449.212 1075.15 448.478 1075.28 447.553L1076.5 438.642L1084.34 439.716L1081.74 458.684L1074.28 457.662L1075.03 452.183L1076.32 453.878C1075.45 455.266 1074.34 456.233 1072.99 456.778C1071.67 457.304 1070.29 457.468 1068.86 457.272ZM1093.88 467.555C1092.01 467.298 1090.28 466.861 1088.69 466.243C1087.11 465.625 1085.78 464.842 1084.71 463.895L1088.07 458.916C1088.73 459.595 1089.61 460.174 1090.7 460.653C1091.8 461.159 1092.87 461.481 1093.88 461.62C1095.5 461.842 1096.71 461.654 1097.49 461.055C1098.28 460.48 1098.76 459.557 1098.93 458.285L1099.15 456.69L1100.31 450.843L1101.15 444.952L1101.54 442.074L1109 443.096L1106.92 458.284C1106.41 461.96 1105.02 464.548 1102.74 466.049C1100.47 467.551 1097.51 468.053 1093.88 467.555ZM1093.47 459.232C1091.87 459.013 1090.43 458.439 1089.15 457.509C1087.87 456.556 1086.89 455.339 1086.22 453.858C1085.55 452.377 1085.35 450.7 1085.6 448.827C1085.86 446.955 1086.51 445.395 1087.55 444.149C1088.6 442.902 1089.86 442.004 1091.35 441.454C1092.84 440.905 1094.38 440.739 1095.97 440.958C1097.62 441.183 1098.91 441.69 1099.86 442.48C1100.84 443.273 1101.49 444.386 1101.81 445.82C1102.13 447.23 1102.15 448.976 1101.87 451.056C1101.58 453.137 1101.09 454.824 1100.4 456.119C1099.7 457.39 1098.78 458.288 1097.62 458.812C1096.5 459.317 1095.11 459.457 1093.47 459.232ZM1096.39 453.414C1097.01 453.5 1097.58 453.449 1098.1 453.261C1098.62 453.073 1099.05 452.767 1099.39 452.343C1099.74 451.918 1099.95 451.406 1100.03 450.805C1100.12 450.18 1100.05 449.63 1099.83 449.152C1099.62 448.652 1099.28 448.253 1098.83 447.955C1098.38 447.635 1097.84 447.431 1097.22 447.346C1096.62 447.263 1096.04 447.315 1095.5 447.499C1094.98 447.664 1094.54 447.957 1094.18 448.378C1093.84 448.779 1093.63 449.292 1093.55 449.916C1093.46 450.517 1093.53 451.068 1093.74 451.568C1093.98 452.071 1094.32 452.484 1094.77 452.805C1095.25 453.128 1095.79 453.332 1096.39 453.414ZM1118.54 470.934C1116.66 470.677 1114.93 470.24 1113.35 469.622C1111.76 469.004 1110.43 468.221 1109.36 467.274L1112.72 462.295C1113.39 462.974 1114.26 463.553 1115.35 464.032C1116.46 464.537 1117.52 464.86 1118.54 464.999C1120.15 465.221 1121.36 465.033 1122.15 464.434C1122.93 463.859 1123.41 462.935 1123.59 461.664L1123.8 460.069L1124.96 454.222L1125.8 448.331L1126.2 445.453L1133.65 446.475L1131.57 461.663C1131.07 465.339 1129.68 467.927 1127.4 469.428C1125.12 470.93 1122.16 471.431 1118.54 470.934ZM1118.12 462.611C1116.53 462.392 1115.09 461.818 1113.8 460.888C1112.52 459.935 1111.54 458.718 1110.87 457.237C1110.21 455.756 1110 454.079 1110.26 452.206C1110.51 450.334 1111.16 448.774 1112.21 447.528C1113.25 446.281 1114.51 445.383 1116 444.833C1117.49 444.283 1119.03 444.118 1120.63 444.337C1122.27 444.562 1123.56 445.069 1124.52 445.859C1125.49 446.652 1126.14 447.765 1126.46 449.199C1126.79 450.609 1126.8 452.355 1126.52 454.435C1126.23 456.516 1125.74 458.203 1125.05 459.498C1124.36 460.769 1123.43 461.666 1122.28 462.191C1121.15 462.696 1119.76 462.836 1118.12 462.611ZM1121.04 456.793C1121.66 456.879 1122.24 456.827 1122.76 456.64C1123.28 456.452 1123.71 456.146 1124.05 455.722C1124.39 455.297 1124.6 454.785 1124.68 454.184C1124.77 453.559 1124.7 453.009 1124.48 452.531C1124.27 452.031 1123.94 451.632 1123.48 451.334C1123.03 451.013 1122.49 450.81 1121.87 450.725C1121.27 450.642 1120.7 450.693 1120.15 450.878C1119.64 451.043 1119.2 451.336 1118.83 451.757C1118.49 452.158 1118.28 452.671 1118.2 453.295C1118.12 453.896 1118.18 454.446 1118.4 454.947C1118.63 455.45 1118.98 455.863 1119.43 456.183C1119.9 456.507 1120.44 456.711 1121.04 456.793ZM1144.94 467.7C1142.63 467.383 1140.67 466.678 1139.05 465.585C1137.46 464.495 1136.29 463.146 1135.54 461.536C1134.8 459.904 1134.56 458.151 1134.81 456.279C1135.08 454.36 1135.77 452.724 1136.9 451.372C1138.05 450.022 1139.49 449.042 1141.22 448.432C1142.98 447.824 1144.87 447.66 1146.91 447.939C1148.78 448.196 1150.45 448.801 1151.92 449.757C1153.42 450.715 1154.54 451.987 1155.29 453.574C1156.06 455.163 1156.3 457.033 1156 459.183C1155.96 459.46 1155.91 459.771 1155.84 460.114C1155.77 460.435 1155.71 460.732 1155.65 461.006L1141.05 459.005L1141.56 455.226L1152 456.656L1148.92 457.258C1149.02 456.518 1148.96 455.875 1148.76 455.328C1148.58 454.762 1148.27 454.308 1147.85 453.967C1147.43 453.603 1146.89 453.377 1146.25 453.288C1145.6 453.2 1145.01 453.272 1144.49 453.506C1143.98 453.72 1143.57 454.076 1143.24 454.573C1142.92 455.046 1142.71 455.653 1142.61 456.393L1142.44 457.572C1142.33 458.381 1142.4 459.097 1142.64 459.719C1142.89 460.341 1143.29 460.844 1143.85 461.227C1144.41 461.587 1145.12 461.825 1145.98 461.942C1146.86 462.063 1147.59 462.045 1148.18 461.89C1148.79 461.738 1149.43 461.474 1150.12 461.097L1153.65 465.784C1152.59 466.652 1151.34 467.258 1149.9 467.602C1148.49 467.927 1146.84 467.96 1144.94 467.7ZM1165.45 470.51C1163.81 470.285 1162.33 469.683 1161.03 468.704C1159.75 467.705 1158.8 466.42 1158.17 464.849C1157.54 463.256 1157.36 461.442 1157.64 459.408C1157.92 457.373 1158.58 455.685 1159.61 454.343C1160.64 452.977 1161.91 451.997 1163.4 451.401C1164.92 450.808 1166.5 450.624 1168.14 450.849C1169.81 451.077 1171.12 451.622 1172.09 452.485C1173.05 453.324 1173.69 454.507 1174 456.033C1174.31 457.536 1174.32 459.409 1174.01 461.651C1173.7 463.916 1173.2 465.744 1172.52 467.134C1171.85 468.527 1170.94 469.497 1169.78 470.045C1168.65 470.596 1167.2 470.751 1165.45 470.51ZM1168.16 464.664C1168.73 464.743 1169.27 464.676 1169.77 464.462C1170.27 464.248 1170.7 463.882 1171.05 463.365C1171.41 462.826 1171.64 462.151 1171.75 461.342C1171.87 460.51 1171.82 459.809 1171.62 459.239C1171.42 458.646 1171.1 458.179 1170.68 457.839C1170.26 457.498 1169.76 457.288 1169.18 457.209C1168.6 457.129 1168.06 457.197 1167.56 457.411C1167.06 457.625 1166.63 457.99 1166.28 458.507C1165.93 459.001 1165.7 459.664 1165.58 460.496C1165.47 461.305 1165.52 462.018 1165.71 462.634C1165.91 463.226 1166.23 463.693 1166.65 464.034C1167.08 464.375 1167.58 464.585 1168.16 464.664ZM1170.7 470.876L1171.05 468.31L1171.96 461.37L1172.57 454.388L1173.84 445.095L1181.68 446.169L1178.15 471.898L1170.7 470.876ZM1181.86 472.407L1185.19 448.134L1193.37 449.256L1190.05 473.529L1181.86 472.407ZM1209.57 456.527C1211.02 456.727 1212.3 457.208 1213.4 457.971C1214.5 458.71 1215.3 459.75 1215.8 461.09C1216.32 462.434 1216.44 464.099 1216.17 466.087L1214.69 476.906L1206.85 475.832L1208.15 466.366C1208.31 465.187 1208.22 464.326 1207.87 463.783C1207.52 463.218 1206.99 462.886 1206.27 462.788C1205.74 462.715 1205.23 462.774 1204.73 462.965C1204.26 463.136 1203.85 463.48 1203.49 463.996C1203.16 464.516 1202.93 465.25 1202.8 466.198L1201.58 475.11L1193.74 474.036L1196.34 455.068L1203.8 456.09L1203.04 461.638L1201.77 459.838C1202.7 458.506 1203.84 457.568 1205.19 457.022C1206.56 456.48 1208.02 456.315 1209.57 456.527ZM1221.58 478.204C1220.29 478.027 1219.26 477.462 1218.49 476.509C1217.73 475.533 1217.44 474.387 1217.62 473.069C1217.81 471.728 1218.39 470.713 1219.38 470.025C1220.37 469.336 1221.51 469.08 1222.81 469.258C1224.1 469.435 1225.13 469.989 1225.9 470.918C1226.67 471.848 1226.96 472.983 1226.78 474.324C1226.6 475.641 1226.01 476.668 1225.01 477.403C1224.02 478.114 1222.88 478.382 1221.58 478.204Z" fill="white"/>
<defs>
<radialGradient id="paint0_radial_22_22" cx="0" cy="0" r="1" gradientUnits="userSpaceOnUse" gradientTransform="translate(703.377 942.817) scale(650.8 650.8)">
<stop offset="0.5" stop-color="#FDE030"/>
<stop offset="0.92" stop-color="#F7C02B"/>
<stop offset="1" stop-color="#F4A223"/>
</radialGradient>
<radialGradient id="paint1_radial_22_22" cx="0" cy="0" r="1" gradientUnits="userSpaceOnUse" gradientTransform="translate(320.676 943.191) scale(244.694 219.726)">
<stop stop-color="#ED7770"/>
<stop offset="0.9" stop-color="#ED7770" stop-opacity="0"/>
</radialGradient>
<radialGradient id="paint2_radial_22_22" cx="0" cy="0" r="1" gradientUnits="userSpaceOnUse" gradientTransform="translate(1511.82 15042.1) scale(249.611 249.611)">
<stop stop-color="#ED7770"/>
<stop offset="0.9" stop-color="#ED7770" stop-opacity="0"/>
</radialGradient>
<linearGradient id="paint3_linear_22_22" x1="942.323" y1="1040.92" x2="1420.09" y2="1040.92" gradientUnits="userSpaceOnUse">
<stop stop-color="#004054"/>
<stop offset="0.99" stop-color="#45A4FF"/>
</linearGradient>
<linearGradient id="paint4_linear_22_22" x1="1113.81" y1="376.286" x2="1113.81" y2="480.808" gradientUnits="userSpaceOnUse">
<stop stop-color="#FD3B3B"/>
<stop offset="1" stop-color="#FF9C9C"/>
</linearGradient>
</defs>
</svg>
