<svg width="1500" height="1473" viewBox="0 0 1500 1473" fill="none" xmlns="http://www.w3.org/2000/svg">
<path d="M269.531 965.625H1244.53C1244.53 440.625 1169.53 328.125 757.031 328.125C344.531 328.125 269.531 440.625 269.531 965.625Z" fill="#AC5A0F"/>
<rect x="276" y="952" width="969" height="363" fill="#AC5A0F"/>
<path d="M1186.84 853.247C1184.5 874.341 1179.81 893.091 1172.78 902.466C1163.41 921.216 1139.97 932.935 1139.97 932.935C1139.97 932.935 1144.66 893.091 1144.66 839.185C1121.22 513.404 1102.47 604.81 739.188 604.81C378.25 604.81 172 668.091 172 886.06C172 1045.43 322 1118.09 322 1118.09C359.5 1275.12 467.312 1361.84 636.062 1439.18C687.625 1462.62 790.75 1462.62 842.312 1439.18C1029.81 1354.81 1139.97 1256.37 1165.75 1066.53C1240.75 1061.84 1264.19 1010.28 1264.19 951.685C1266.53 850.904 1222 843.872 1186.84 853.247Z" fill="#B27C36"/>
<path d="M886 1270.19C886 1309.49 822.192 1360.43 761.615 1350.45C694.577 1361.68 613 1309.49 613 1270.19C613 1270.19 613 1260 626.271 1260H872.729C886 1260 886 1270.19 886 1270.19Z" fill="#AC3434" stroke="#703B2A" stroke-width="30"/>
<path d="M613 1250.5C613.497 1206.1 678.452 1171.04 759.43 1198.59C829.538 1173.36 886.681 1212.72 886.184 1257.12C886.184 1257.12 886.055 1268.63 872.527 1268.48L621.3 1265.66C607.772 1265.51 613 1250.5 613 1250.5Z" fill="#AB3E3E" stroke="#703B2A" stroke-width="30"/>
<path d="M982.031 827.344C1075.78 827.344 1113.28 860.156 1113.28 895.313C1113.28 930.469 1113.28 977.344 989.063 977.344C869.531 977.344 850.781 963.281 850.781 911.719C850.781 876.563 888.281 827.344 982.031 827.344" fill="#F5F5F5"/>
<path d="M972.656 967.969C1019.26 967.969 1057.03 930.193 1057.03 883.594C1057.03 836.995 1019.26 799.219 972.656 799.219C926.057 799.219 888.281 836.995 888.281 883.594C888.281 930.193 926.057 967.969 972.656 967.969Z" fill="#612613" fill-opacity="0.9"/>
<path d="M944.531 883.594C944.531 900 956.25 911.719 972.656 911.719C989.063 911.719 1000.78 900 1000.78 883.594C1000.78 867.188 989.063 855.469 972.656 855.469C956.25 855.469 944.531 867.188 944.531 883.594Z" fill="#231F20"/>
<path d="M1113.28 892.969C1113.28 761.719 850.781 761.719 850.781 911.719C888.281 799.219 1075.78 799.219 1113.28 892.969Z" fill="#362C1C"/>
<path d="M757.031 1134.38C679.687 1134.38 639.843 1078.12 679.687 1078.12H836.718C876.562 1078.12 834.375 1134.38 757.031 1134.38Z" fill="#926731"/>
<path d="M457.031 801.562C349.219 801.562 304.688 841.406 304.688 881.25C304.688 921.094 304.688 977.344 447.656 977.344C585.938 977.344 609.375 960.937 609.375 902.344C609.375 860.156 564.844 801.562 457.031 801.562Z" fill="#F5F5F5"/>
<path d="M468.75 967.969C523.116 967.969 567.188 923.897 567.188 869.531C567.188 815.166 523.116 771.094 468.75 771.094C414.384 771.094 370.312 815.166 370.312 869.531C370.312 923.897 414.384 967.969 468.75 967.969Z" fill="#703B2A"/>
<path d="M501.562 869.531C501.562 888.281 487.5 902.344 468.75 902.344C450 902.344 435.938 888.281 435.938 869.531C435.938 850.781 450 836.719 468.75 836.719C485.156 836.719 501.562 850.781 501.562 869.531Z" fill="#231F20"/>
<path d="M351.812 803.015L310.481 861.276L256 803.015L351.812 803.015Z" fill="#362C1C"/>
<path d="M304.688 878.906C304.688 726.563 609.375 726.563 609.375 900C564.844 771.094 349.219 771.094 304.688 878.906Z" fill="#362C1C"/>
<path opacity="0.4" d="M452.344 1134.38C596.024 1134.38 712.5 1017.9 712.5 874.219C712.5 730.538 596.024 614.062 452.344 614.062C308.663 614.062 192.188 730.538 192.188 874.219C192.188 1017.9 308.663 1134.38 452.344 1134.38Z" fill="#F5F5F5"/>
<path d="M259.758 1142.23L285.539 1097.58L344.391 1131.56L318.609 1176.21L259.758 1142.23Z" fill="#B0BDC6"/>
<path d="M309.375 1125C447.657 1204.69 623.438 1157.81 703.125 1019.53C782.813 881.25 735.938 705.469 597.657 625.781C459.375 546.094 283.594 592.969 203.907 731.25C124.219 869.531 171.094 1045.31 309.375 1125ZM248.438 757.031C314.063 644.531 459.375 604.687 571.875 670.312C684.375 735.937 724.219 881.25 658.594 993.75C592.969 1106.25 447.657 1146.09 335.157 1080.47C220.313 1014.84 182.813 869.531 248.438 757.031" fill="#B0BDC6"/>
<path d="M117.703 1332.02L238.43 1122.96L343.969 1183.9L223.266 1392.96L117.703 1332.02Z" fill="#333333"/>
<path d="M100.782 1328.91C91.4066 1345.31 227.344 1425 236.719 1408.59L243.75 1396.88C253.125 1380.47 117.188 1300.78 107.813 1317.19L100.782 1328.91" fill="#B0BDC6"/>
<path d="M1239.84 522.656C1026.56 285.937 1242.19 -35.1563 1075.78 65.6249C953.906 140.625 836.719 159.375 750 159.375C665.625 159.375 546.094 140.625 424.219 65.6249C257.812 -35.1563 473.438 283.594 260.156 522.656C56.25 642.187 46.875 628.125 46.875 656.25C46.875 672.656 56.25 815.625 750 815.625C1443.75 815.625 1453.12 670.312 1453.12 656.25C1453.12 628.125 1443.75 642.187 1239.84 522.656Z" fill="#62727A"/>
<path d="M750 564.844C975 564.844 1239.84 522.656 1239.84 522.656C1216.41 496.875 1200 471.094 1185.94 442.969C1078.13 459.375 935.156 468.75 750 468.75C564.844 468.75 424.219 459.375 314.062 442.969C300 471.094 283.594 499.219 260.156 522.656C260.156 522.656 525 564.844 750 564.844" fill="#2C3033"/>
<path d="M1149.31 815.227L1107.98 873.489L1053.5 815.227L1149.31 815.227Z" fill="#362C1C"/>
<path d="M1277.45 895.466C1269.77 895.466 1266.52 906.527 1263.45 913.078C1261.8 916.615 1261.22 920.685 1260.06 924.261C1259.86 924.87 1259.61 930.799 1258.98 928.454C1258.14 925.338 1258.64 920.205 1259.26 917.16C1260.59 910.623 1263.71 907.043 1266.05 901.504C1267.18 898.82 1269.68 896.439 1271.51 894.459C1272.9 892.967 1275.84 893.169 1276.56 891.049C1277.12 889.37 1276.6 894.664 1276.6 896.472C1276.6 897.777 1276.6 893.613 1276.6 893.006C1276.6 891.527 1277.39 884.607 1275.28 885.513C1271.9 886.974 1268.08 892.49 1265.53 895.522C1262.33 899.315 1258.49 902.039 1256.67 907.096C1254.97 911.787 1252.98 916.05 1252.19 921.185C1252.01 922.323 1252 927.457 1252 923.422C1252 920.626 1252 915.035 1252 915.035C1252 915.035 1252 920.067 1252 922.583C1252 928.647 1252 928.851 1252 923.142C1252 919.047 1252.05 913.67 1254.12 910.227C1254.24 910.026 1254.44 915.15 1253.51 916.377C1252.67 917.478 1253.26 912.278 1253.32 912.072C1254.58 908.011 1257.06 905.641 1258.79 902.063C1262.36 894.65 1267.59 890.46 1274.25 887.638C1276.7 886.599 1277.49 886.592 1278.77 888.98C1279.31 889.973 1280 893.298 1280 892.446C1280 887.733 1279.72 888.961 1277.26 886.632C1272.51 882.123 1262.62 892.305 1260.67 896.472C1258.67 900.738 1253.24 913.399 1253.7 908.549C1254.26 902.511 1261.07 895.652 1264.54 892.223C1267.59 889.204 1272.27 888.639 1275.1 885.625C1278.9 881.561 1279.87 885.886 1280 890.21C1280.11 893.845 1274.92 899.66 1274.91 899.491C1274.75 896.425 1274.91 893.283 1274.91 890.21C1274.91 884.158 1270.97 888.971 1269.16 891.664C1267.81 893.656 1267.09 898.461 1266 900.945C1264.68 903.956 1260.31 912.15 1263.41 903.853C1264.9 899.849 1269.72 888.682 1269.72 893.061C1269.72 896.135 1264.46 901.996 1263.03 904.524C1261.38 907.433 1258.42 918.329 1256.24 919.62" stroke="#F8C40D" stroke-width="3" stroke-linecap="round"/>
<path d="M1267.45 865.466C1259.77 865.466 1256.52 876.527 1253.45 883.078C1251.8 886.615 1251.22 890.685 1250.06 894.261C1249.86 894.87 1249.61 900.799 1248.98 898.454C1248.14 895.338 1248.64 890.205 1249.26 887.16C1250.59 880.623 1253.71 877.043 1256.05 871.504C1257.18 868.82 1259.68 866.439 1261.51 864.459C1262.9 862.967 1265.84 863.169 1266.56 861.049C1267.12 859.37 1266.6 864.664 1266.6 866.472C1266.6 867.777 1266.6 863.613 1266.6 863.006C1266.6 861.527 1267.39 854.607 1265.28 855.513C1261.9 856.974 1258.08 862.49 1255.53 865.522C1252.33 869.315 1248.49 872.039 1246.67 877.096C1244.97 881.787 1242.98 886.05 1242.19 891.185C1242.01 892.323 1242 897.457 1242 893.422C1242 890.626 1242 885.035 1242 885.035C1242 885.035 1242 890.067 1242 892.583C1242 898.647 1242 898.851 1242 893.142C1242 889.047 1242.05 883.67 1244.12 880.227C1244.24 880.026 1244.44 885.15 1243.51 886.377C1242.67 887.478 1243.26 882.278 1243.32 882.072C1244.58 878.011 1247.06 875.641 1248.79 872.063C1252.36 864.65 1257.59 860.46 1264.25 857.638C1266.7 856.599 1267.49 856.592 1268.77 858.98C1269.31 859.973 1270 863.298 1270 862.446C1270 857.733 1269.72 858.961 1267.26 856.632C1262.51 852.123 1252.62 862.305 1250.67 866.472C1248.67 870.738 1243.24 883.399 1243.7 878.549C1244.26 872.511 1251.07 865.652 1254.54 862.223C1257.59 859.204 1262.27 858.639 1265.1 855.625C1268.9 851.561 1269.87 855.886 1270 860.21C1270.11 863.845 1264.92 869.66 1264.91 869.491C1264.75 866.425 1264.91 863.283 1264.91 860.21C1264.91 854.158 1260.97 858.971 1259.16 861.664C1257.81 863.656 1257.09 868.461 1256 870.945C1254.68 873.956 1250.31 882.15 1253.41 873.853C1254.9 869.849 1259.72 858.682 1259.72 863.061C1259.72 866.135 1254.46 871.996 1253.03 874.524C1251.38 877.433 1248.42 888.329 1246.24 889.62" stroke="#F8C40D" stroke-width="3" stroke-linecap="round"/>
<mask id="path-26-inside-1_33_126" fill="white">
<path d="M744 1171.5C744 1164.04 750.044 1158 757.5 1158V1158C764.956 1158 771 1164.04 771 1171.5V1176.89C771 1182.31 767.321 1187.04 762.068 1188.36V1188.36C760.412 1188.78 758.685 1188.84 757.005 1188.53L756.309 1188.4C749.174 1187.07 744 1180.84 744 1173.59V1171.5Z"/>
</mask>
<path d="M744 1171.5C744 1164.04 750.044 1158 757.5 1158V1158C764.956 1158 771 1164.04 771 1171.5V1176.89C771 1182.31 767.321 1187.04 762.068 1188.36V1188.36C760.412 1188.78 758.685 1188.84 757.005 1188.53L756.309 1188.4C749.174 1187.07 744 1180.84 744 1173.59V1171.5Z" fill="#B27C36"/>
<path d="M741 1171.5V1176.89H801V1171.5H741ZM774 1173.59V1171.5H714V1173.59H774ZM762.491 1159.03L761.795 1158.9L750.822 1217.89L751.519 1218.02L762.491 1159.03ZM754.716 1159.28C757.259 1158.64 759.912 1158.55 762.491 1159.03L751.519 1218.02C757.457 1219.12 763.565 1218.93 769.421 1217.45L754.716 1159.28ZM714 1173.59C714 1195.3 729.479 1213.92 750.822 1217.89L761.795 1158.9C768.869 1160.22 774 1166.39 774 1173.59H714ZM741 1176.89C741 1168.57 746.65 1161.32 754.716 1159.28L769.421 1217.45C787.991 1212.76 801 1196.05 801 1176.89H741ZM757.5 1188C748.387 1188 741 1180.61 741 1171.5H801C801 1147.48 781.524 1128 757.5 1128V1188ZM757.5 1128C733.476 1128 714 1147.48 714 1171.5H774C774 1180.61 766.613 1188 757.5 1188V1128Z" fill="#703B2A" mask="url(#path-26-inside-1_33_126)"/>
<ellipse cx="925" cy="1050.5" rx="6" ry="5.5" fill="#673B2D"/>
<path d="M575 1265C727.607 1277.68 863.859 1272.39 915 1268.69" stroke="#B27C36" stroke-width="15"/>
<path d="M740 1134H805L803 1166L800 1166.5L785.625 1168H758L742 1166L740.25 1165.5L741 1165L740 1134Z" fill="#B27C36"/>
<ellipse cx="236" cy="1251.17" rx="50" ry="47.1698" fill="black" stroke="#72509C" stroke-width="8"/>
<path d="M236.385 1221.67L222.416 1258.25L237.327 1253.01L235.263 1280.62L248.733 1242.16L232.718 1247.81L236.385 1221.67Z" stroke="#FFF853" stroke-width="4" stroke-linecap="round" stroke-linejoin="round"/>
<rect x="323.195" y="455.145" width="200" height="69.6814" rx="34.8407" transform="rotate(5.51374 323.195 455.145)" fill="#72509C"/>
<path d="M353.924 471.399L341.151 497.115L352.404 494.341L348.952 514.347L361.494 487.226L349.406 490.219L353.924 471.399Z" stroke="#FFF853" stroke-width="3" stroke-linecap="round" stroke-linejoin="round"/>
<path d="M369.085 502.774L370.565 487.446L377.944 488.158C379.375 488.296 380.586 488.649 381.577 489.216C382.583 489.785 383.329 490.534 383.814 491.465C384.3 492.381 384.486 493.431 384.372 494.613C384.258 495.796 383.874 496.79 383.222 497.597C382.569 498.403 381.694 498.996 380.597 499.377C379.515 499.744 378.259 499.858 376.828 499.72L372.317 499.285L374.83 497.295L374.253 503.273L369.085 502.774ZM374.775 497.864L372.702 495.299L376.884 495.703C377.6 495.772 378.141 495.662 378.508 495.373C378.889 495.086 379.106 494.665 379.16 494.11C379.214 493.556 379.081 493.101 378.761 492.746C378.457 492.392 377.946 492.181 377.231 492.112L373.049 491.708L375.574 489.587L374.775 497.864ZM385.206 504.33L386.774 488.082L391.723 488.56L390.155 504.808L385.206 504.33ZM397.32 505.721C396.371 505.629 395.528 505.356 394.791 504.902C394.07 504.435 393.53 503.771 393.171 502.911C392.813 502.037 392.697 500.95 392.822 499.651L393.461 493.037L398.41 493.515L397.854 499.274C397.772 500.121 397.854 500.726 398.099 501.088C398.344 501.451 398.707 501.655 399.189 501.702C399.481 501.73 399.758 501.683 400.02 501.561C400.298 501.426 400.535 501.191 400.729 500.856C400.925 500.506 401.051 500.04 401.107 499.456L401.651 493.828L406.6 494.306L405.443 506.284L400.735 505.83L401.069 502.37L401.92 503.402C401.406 504.296 400.734 504.931 399.902 505.307C399.086 505.67 398.225 505.808 397.32 505.721ZM413.295 511.551C412.112 511.437 411.015 511.205 410.002 510.857C408.99 510.509 408.135 510.051 407.439 509.483L409.428 506.271C409.86 506.681 410.424 507.023 411.12 507.296C411.828 507.586 412.504 507.761 413.146 507.823C414.168 507.922 414.919 507.773 415.4 507.378C415.878 506.997 416.157 506.405 416.234 505.602L416.331 504.594L416.91 500.893L417.291 497.172L417.466 495.355L422.175 495.809L421.249 505.401C421.025 507.722 420.216 509.382 418.823 510.383C417.43 511.383 415.587 511.772 413.295 511.551ZM412.826 506.334C411.819 506.236 410.9 505.912 410.069 505.36C409.239 504.794 408.596 504.054 408.139 503.14C407.682 502.227 407.511 501.179 407.625 499.997C407.739 498.814 408.108 497.818 408.731 497.009C409.354 496.2 410.126 495.604 411.048 495.221C411.969 494.839 412.933 494.696 413.94 494.793C414.977 494.893 415.804 495.179 416.421 495.652C417.053 496.125 417.488 496.808 417.726 497.7C417.966 498.578 418.022 499.674 417.895 500.988C417.768 502.302 417.503 503.374 417.098 504.204C416.695 505.02 416.138 505.607 415.425 505.966C414.729 506.311 413.863 506.434 412.826 506.334ZM414.512 502.606C414.906 502.644 415.264 502.598 415.586 502.467C415.908 502.336 416.171 502.133 416.374 501.858C416.578 501.583 416.698 501.255 416.735 500.876C416.773 500.482 416.717 500.138 416.569 499.843C416.422 499.534 416.202 499.292 415.91 499.117C415.619 498.926 415.276 498.812 414.882 498.774C414.502 498.738 414.144 498.784 413.808 498.914C413.487 499.03 413.218 499.225 413 499.499C412.798 499.759 412.678 500.086 412.64 500.481C412.603 500.86 412.658 501.204 412.805 501.513C412.967 501.824 413.193 502.074 413.484 502.264C413.79 502.456 414.132 502.57 414.512 502.606ZM428.863 513.054C427.681 512.939 426.583 512.708 425.571 512.36C424.558 512.012 423.703 511.554 423.007 510.985L424.997 507.774C425.429 508.184 425.992 508.525 426.688 508.799C427.397 509.088 428.072 509.264 428.715 509.326C429.737 509.425 430.488 509.276 430.968 508.881C431.447 508.499 431.725 507.907 431.802 507.105L431.9 506.097L432.478 502.396L432.859 498.675L433.035 496.857L437.743 497.312L436.817 506.903C436.593 509.225 435.784 510.885 434.391 511.885C432.998 512.885 431.155 513.275 428.863 513.054ZM428.394 507.836C427.387 507.739 426.468 507.415 425.637 506.863C424.808 506.297 424.164 505.557 423.707 504.643C423.25 503.73 423.079 502.682 423.193 501.499C423.307 500.317 423.676 499.321 424.299 498.512C424.923 497.703 425.695 497.107 426.616 496.724C427.537 496.342 428.501 496.199 429.508 496.296C430.545 496.396 431.372 496.682 431.989 497.154C432.621 497.628 433.056 498.311 433.294 499.203C433.534 500.081 433.59 501.177 433.463 502.491C433.337 503.805 433.071 504.877 432.667 505.707C432.264 506.523 431.706 507.11 430.994 507.468C430.297 507.814 429.431 507.936 428.394 507.836ZM430.08 504.109C430.474 504.147 430.833 504.101 431.155 503.97C431.477 503.839 431.739 503.636 431.943 503.361C432.146 503.086 432.266 502.758 432.303 502.379C432.341 501.985 432.286 501.64 432.137 501.346C431.99 501.037 431.77 500.795 431.478 500.619C431.187 500.429 430.844 500.315 430.45 500.277C430.071 500.24 429.712 500.287 429.376 500.416C429.055 500.533 428.786 500.728 428.568 501.001C428.366 501.262 428.246 501.589 428.208 501.983C428.171 502.363 428.226 502.707 428.373 503.016C428.535 503.326 428.761 503.577 429.052 503.767C429.358 503.958 429.701 504.073 430.08 504.109ZM445.367 510.359C443.907 510.218 442.656 509.825 441.613 509.179C440.585 508.534 439.817 507.716 439.308 506.724C438.801 505.717 438.605 504.623 438.719 503.44C438.836 502.228 439.232 501.184 439.906 500.306C440.595 499.429 441.475 498.777 442.548 498.35C443.635 497.925 444.821 497.774 446.106 497.898C447.288 498.012 448.353 498.351 449.301 498.914C450.263 499.478 450.999 500.249 451.509 501.227C452.033 502.206 452.23 503.374 452.099 504.732C452.082 504.907 452.056 505.103 452.02 505.321C451.986 505.524 451.953 505.712 451.921 505.886L442.702 504.996L442.932 502.609L449.524 503.245L447.601 503.701C447.646 503.234 447.597 502.831 447.453 502.493C447.324 502.142 447.123 501.864 446.848 501.661C446.574 501.443 446.233 501.314 445.824 501.275C445.415 501.235 445.048 501.296 444.724 501.456C444.415 501.603 444.164 501.837 443.971 502.157C443.779 502.462 443.661 502.849 443.616 503.316L443.544 504.061C443.494 504.572 443.554 505.019 443.724 505.404C443.893 505.789 444.158 506.094 444.519 506.321C444.882 506.533 445.333 506.665 445.873 506.717C446.428 506.77 446.888 506.741 447.252 506.629C447.631 506.518 448.032 506.336 448.454 506.082L450.787 508.937C450.142 509.508 449.373 509.92 448.479 510.173C447.602 510.413 446.564 510.474 445.367 510.359ZM458.316 511.609C457.279 511.509 456.34 511.168 455.497 510.585C454.671 509.99 454.039 509.207 453.602 508.236C453.167 507.251 453.011 506.116 453.135 504.832C453.259 503.547 453.628 502.47 454.243 501.601C454.858 500.718 455.628 500.07 456.552 499.658C457.49 499.248 458.478 499.093 459.514 499.193C460.566 499.294 461.405 499.603 462.033 500.121C462.662 500.624 463.093 501.35 463.325 502.301C463.559 503.237 463.608 504.413 463.471 505.829C463.333 507.26 463.066 508.421 462.671 509.311C462.29 510.202 461.743 510.835 461.029 511.208C460.33 511.582 459.425 511.716 458.316 511.609ZM459.87 507.869C460.235 507.904 460.572 507.848 460.881 507.701C461.19 507.554 461.449 507.314 461.658 506.981C461.869 506.633 461.998 506.203 462.048 505.692C462.098 505.167 462.052 504.727 461.91 504.375C461.768 504.007 461.56 503.722 461.285 503.519C461.01 503.315 460.69 503.196 460.325 503.161C459.96 503.126 459.623 503.181 459.314 503.328C459.005 503.475 458.746 503.716 458.537 504.049C458.33 504.368 458.201 504.79 458.15 505.316C458.1 505.827 458.146 506.273 458.286 506.655C458.427 507.022 458.635 507.308 458.91 507.511C459.185 507.714 459.505 507.834 459.87 507.869ZM461.622 511.707L461.778 510.087L462.179 505.705L462.383 501.304L462.949 495.435L467.898 495.913L466.33 512.161L461.622 511.707ZM468.675 512.388L470.154 497.059L475.322 497.558L473.843 512.887L468.675 512.388ZM485.676 501.718C486.596 501.807 487.41 502.077 488.117 502.528C488.827 502.965 489.355 503.598 489.702 504.427C490.064 505.258 490.184 506.301 490.063 507.557L489.404 514.389L484.455 513.911L485.032 507.933C485.104 507.188 485.023 506.65 484.79 506.318C484.558 505.972 484.216 505.776 483.763 505.733C483.428 505.7 483.106 505.75 482.799 505.883C482.507 506.002 482.257 506.228 482.048 506.562C481.853 506.897 481.727 507.363 481.67 507.962L481.126 513.59L476.177 513.112L477.334 501.134L482.042 501.588L481.703 505.092L480.859 503.994C481.414 503.134 482.107 502.515 482.939 502.139C483.786 501.764 484.698 501.624 485.676 501.718ZM493.766 515.031C492.948 514.952 492.287 514.623 491.783 514.044C491.281 513.45 491.069 512.737 491.15 511.905C491.232 511.058 491.574 510.406 492.178 509.949C492.783 509.491 493.493 509.302 494.311 509.381C495.128 509.46 495.79 509.782 496.295 510.346C496.801 510.911 497.013 511.616 496.931 512.463C496.851 513.295 496.507 513.955 495.9 514.441C495.295 514.913 494.583 515.11 493.766 515.031Z" fill="white"/>
</svg>
