<svg width="1600" height="1381" viewBox="0 0 1600 1381" fill="none" xmlns="http://www.w3.org/2000/svg">
<path d="M1024.9 613.518C1024.9 613.518 909.572 938.6 854.768 995.354C799.961 1052.11 709.522 1053.69 652.768 998.879C596.011 944.072 594.433 853.636 649.24 796.879C704.047 740.125 1024.9 613.518 1024.9 613.518Z" fill="#2F88FF" stroke="black" stroke-width="100" stroke-linejoin="round"/>
<path d="M1330.33 1330.33C1466.05 1194.61 1550 1007.11 1550 800C1550 385.786 1214.21 50 800 50C385.786 50 50 385.786 50 800C50 1007.11 133.947 1194.61 269.67 1330.33" stroke="black" stroke-width="100" stroke-linecap="round" stroke-linejoin="round"/>
<path d="M800 85.7129V228.57" stroke="black" stroke-width="100" stroke-linecap="round" stroke-linejoin="round"/>
<path d="M1330.19 340.786L1219.17 430.686" stroke="black" stroke-width="100" stroke-linecap="round" stroke-linejoin="round"/>
<path d="M1461.51 915.456L1322.31 883.32" stroke="black" stroke-width="100" stroke-linecap="round" stroke-linejoin="round"/>
<path d="M138.477 915.456L277.672 883.32" stroke="black" stroke-width="100" stroke-linecap="round" stroke-linejoin="round"/>
<path d="M269.807 340.786L380.827 430.69" stroke="black" stroke-width="100" stroke-linecap="round" stroke-linejoin="round"/>
</svg>
