<svg width="558" height="1578" viewBox="0 0 558 1578" fill="none" xmlns="http://www.w3.org/2000/svg">
<path d="M271.637 143.608C238.185 143.608 206.103 156.894 182.447 180.545C158.79 204.196 145.495 236.274 145.486 269.726V806.094H397.787V269.726C397.779 236.274 384.484 204.196 360.827 180.545C337.17 156.894 305.088 143.608 271.637 143.608V143.608Z" fill="white"/>
<path d="M389.887 1068.08C440.684 1094.44 481.153 1137.09 504.798 1189.21C528.443 1241.32 533.894 1299.87 520.275 1355.45C506.655 1411.04 474.757 1460.43 429.698 1495.71C384.639 1530.99 329.034 1550.11 271.807 1550C214.579 1549.89 159.049 1530.55 114.128 1495.1C69.2078 1459.64 37.5021 1410.12 24.1 1354.48C10.6979 1298.85 16.3768 1240.32 40.2252 1188.3C64.0736 1136.28 104.708 1093.78 155.608 1067.62V628.87C155.608 628.87 361.582 665.109 389.463 605.201L389.887 1068.08Z" fill="#EA5A47"/>
<path d="M304.012 642.568C338.231 639.843 371.618 630.091 402.302 613.857L402.795 1049.59C402.725 1062.53 406.858 1075.1 414.504 1085.2C462.016 1147.05 507.68 1205.84 507.68 1295.61C507.368 1326.8 501.18 1357.61 489.477 1386.24C477.773 1414.87 460.789 1440.76 439.515 1462.38C418.241 1484 393.104 1500.93 365.57 1512.18C338.035 1523.43 308.656 1528.77 279.146 1527.9C279.146 1527.9 500.47 1351.8 316.213 1144.05C308.216 1132.03 303.991 1117.67 304.135 1102.97L304.012 642.568Z" fill="#D22F27"/>
<path d="M327.723 799.162C301.68 803.751 275.254 805.817 248.814 805.333C196.904 805.333 154.789 799.26 154.789 791.817M327.723 977.843C301.68 982.431 275.254 984.498 248.814 984.014C196.904 984.014 154.789 977.941 154.789 970.497M303.956 624.073C279.203 626.998 254.242 627.763 229.356 626.358C177.446 626.358 154.821 620.58 154.821 613.136M327.723 441.801C301.68 446.39 275.254 448.456 248.814 447.972C196.904 447.972 154.789 441.932 154.789 434.456" stroke="black" stroke-width="100" stroke-linecap="round" stroke-linejoin="round"/>
<path d="M393.443 613.857V1005.54C394.284 1017.04 397.338 1028.19 402.385 1038.18C407.432 1048.18 414.348 1056.78 422.638 1063.36C455.979 1094.11 481.089 1134.96 495.104 1181.24C509.118 1227.52 511.473 1277.37 501.899 1325.11C492.326 1372.84 471.209 1416.54 440.959 1451.22C410.709 1485.9 372.542 1510.15 330.814 1521.23C289.085 1532.3 245.475 1529.74 204.957 1513.84C164.44 1497.94 128.646 1469.34 101.66 1431.31C74.6744 1393.27 57.5824 1347.33 52.3341 1298.73C47.0858 1250.12 53.8925 1200.81 71.9779 1156.41" stroke="black" stroke-width="100" stroke-linecap="round" stroke-linejoin="round"/>
<path d="M125.209 1113.69C133.738 1107.83 140.831 1100.11 145.959 1091.13C151.087 1082.14 154.116 1072.1 154.82 1061.78V166.026C155.335 135.078 167.991 105.571 190.059 83.867C212.127 62.163 241.84 50 272.793 50C303.745 50 333.458 62.163 355.526 83.867C377.595 105.571 390.25 135.078 390.765 166.026L391.124 441.18" stroke="black" stroke-width="100" stroke-linecap="round" stroke-linejoin="round"/>
<path d="M327.723 263.115C301.68 267.704 275.254 269.77 248.814 269.286C196.904 269.286 154.789 263.246 154.789 255.77" stroke="black" stroke-width="100" stroke-linecap="round" stroke-linejoin="round"/>
</svg>
