<svg width="1500" height="1501" viewBox="0 0 1500 1501" fill="none" xmlns="http://www.w3.org/2000/svg">
<path d="M1204.68 173.436L1143.75 234.373C1307.81 346.873 1413.28 536.717 1413.28 749.999C1413.28 963.281 1305.47 1150.78 1143.75 1263.28L1204.68 1324.22C1385.15 1195.31 1500 986.718 1500 749.999C1500 513.28 1382.81 302.342 1204.68 173.436Z" fill="#42ADE2"/>
<path d="M1230.47 750.001C1230.47 911.72 1143.75 1054.69 1012.5 1132.03L1075.78 1195.31C1221.09 1101.56 1317.19 937.501 1317.19 750.001C1317.19 562.501 1221.09 398.438 1073.44 304.688L1010.15 367.969C1141.4 445.313 1230.47 588.282 1230.47 750.001Z" fill="#42ADE2"/>
<path d="M1050 749.998C1050 862.498 977.343 960.935 876.562 996.092L942.187 1061.72C1057.03 1005.47 1136.72 885.935 1136.72 749.998C1136.72 611.716 1057.03 494.528 942.187 435.935L876.562 501.56C977.343 539.06 1050 635.154 1050 749.998" fill="#42ADE2"/>
<path d="M260.157 1054.69H89.0626C39.8438 1054.69 0 1017.19 0 972.658V527.344C0 480.469 39.8438 445.313 89.0626 445.313H260.157V1054.69Z" fill="#8B979E"/>
<path d="M698.441 51.5656C728.91 21.0968 260.159 445.316 260.159 445.316V1054.69C260.159 1054.69 501.566 1239.85 698.441 1448.44V51.5656V51.5656Z" fill="#B0BDC6"/>
<path d="M773.44 597.657V904.689C864.846 904.689 937.503 836.72 937.503 752.345C937.503 665.626 864.846 597.657 773.44 597.657ZM773.44 1464.85C773.44 1483.6 757.034 1500 735.94 1500C714.846 1500 698.44 1483.6 698.44 1464.85V35.1563C698.44 16.4063 714.846 0 735.94 0C757.034 0 773.44 16.4063 773.44 35.1563V1464.85Z" fill="#333333"/>
<path d="M260.157 942.19H89.0626C39.8438 942.19 0 918.753 0 890.627V609.377C0 581.252 39.8438 557.814 89.0626 557.814H260.157V942.19Z" fill="#8B979E"/>
<path d="M260.157 942.19H89.0626C39.8438 942.19 0 918.753 0 890.627V609.377C0 581.252 39.8438 557.814 89.0626 557.814H260.157V942.19Z" fill="#B0BDC6"/>
<path d="M698.441 311.72L260.159 557.814V942.19L698.441 1188.28V311.72Z" fill="#DFE9EF"/>
<path d="M698.44 311.72H773.44V1190.63H698.44V311.72Z" fill="#8B979E"/>
<path d="M89.0637 445.313H260.158V1054.69H89.0637V445.313Z" fill="#333333"/>
</svg>
